<?xml version="1.0" encoding="UTF-8"?>
<svg width="60px" height="60px" viewBox="0 0 60 60" version="1.1" xmlns="http://www.w3.org/2000/svg" xmlns:xlink="http://www.w3.org/1999/xlink">
    <!-- Generator: Sketch 64 (93537) - https://sketch.com -->
    <title>icon-med</title>
    <desc>Created with Sketch.</desc>
    <g id="icon-med" stroke="none" stroke-width="1" fill="none" fill-rule="evenodd">
        <g id="heart" transform="translate(0.000000, 3.000000)" fill="#F5A623" fill-rule="nonzero">
            <path d="M30,54.4958496 C33.935198,52.3242188 60,37.1526228 60,16.6071429 C60,7.76053286 52.741176,0 44.4642857,0 C38.857073,0.00994001786 33.6882672,3.03484232 30.9333147,7.91904991 C30.7271904,8.23399138 30.376151,8.42337469 30,8.42337469 C29.623849,8.42337469 29.2728096,8.23399138 29.0666853,7.91904991 C26.3117328,3.03484232 21.142927,0.00994001786 15.5357143,0 C7.25882397,0 0,7.76053286 0,16.6071429 C0,37.1526228 26.064802,52.3242188 30,54.4958496 Z" id="Path"/>
        </g>
        <g id="sad-hipster-copy" transform="translate(16.000000, 17.000000)" fill="#000000" fill-rule="nonzero" opacity="0.5">
            <circle id="Oval" cx="3.80645161" cy="8.80645161" r="1.80645161"/>
            <circle id="Oval" cx="23.8064516" cy="8.80645161" r="1.80645161"/>
            <path d="M20.8237419,1.76103226 C20.4205161,2.16412903 20.4205161,2.81767742 20.8237419,3.22077419 C21.2268387,3.62387097 21.8803871,3.62387097 22.2834839,3.22077419 C23.251871,2.2523871 24.8276129,2.2523871 25.796,3.22077419 C25.9975484,3.42232258 26.2616774,3.52309677 26.5259355,3.52309677 C26.7901935,3.52309677 27.0543226,3.42232258 27.255871,3.22077419 C27.6590968,2.81767742 27.6590968,2.16412903 27.255871,1.76103226 C25.4825806,-0.0122580645 22.5970323,-0.0122580645 20.8237419,1.76103226 Z" id="Path"/>
            <path d="M0.838451613,1.76103226 C0.435354839,2.16425806 0.435225806,2.81767742 0.838451613,3.22090323 C1.04,3.42258065 1.30412903,3.52322581 1.5683871,3.52322581 C1.83251613,3.52322581 2.09677419,3.42245161 2.29832258,3.22090323 C3.26670968,2.2523871 4.84258065,2.25251613 5.81083871,3.22090323 C6.21393548,3.624 6.86748387,3.624 7.27058065,3.22090323 C7.67380645,2.81780645 7.67380645,2.16425806 7.27058065,1.76116129 C5.49729032,-0.0122580645 2.61187097,-0.0122580645 0.838451613,1.76103226 Z" id="Path"/>
            <path d="M19.5655484,20.5265806 C18.1824516,19.5421935 16.3612903,19 14.4376774,19 C12.5140645,19 10.6930323,19.5421935 9.30980645,20.5265806 C7.8203871,21.5867097 7,23.0303226 7,24.5913548 C7,25.4167742 7.25277419,26.020129 7.75135484,26.3846452 C8.08348387,26.6274839 8.45393548,26.7212924 8.85832258,26.7212924 C9.48425806,26.7212924 10.1912258,26.4962581 10.9619355,26.2508387 C12.0018065,25.919871 13.1802581,25.5447742 14.4376774,25.5447742 C15.6950968,25.5447742 16.8735484,25.919871 17.9134194,26.2509677 C19.1820645,26.6548387 20.2775484,27.0033548 21.124,26.3846452 C21.6225806,26.020129 21.8753548,25.4167742 21.8753548,24.5913548 C21.8753548,23.0303226 21.0550968,21.5867097 19.5655484,20.5265806 Z M19.8103226,24.6410323 C19.4865806,24.5851613 18.9540645,24.4157419 18.5396129,24.2837419 C17.4150968,23.9258065 16.0156129,23.4803871 14.4376774,23.4803871 C12.8597419,23.4803871 11.4602581,23.9258065 10.3357419,24.2837419 C9.92129032,24.4156129 9.38877419,24.5851613 9.06503226,24.6410323 C9.06464516,24.6254194 9.06451613,24.6089032 9.06451613,24.5913548 C9.06451613,22.6796129 11.5250323,21.0645161 14.4376774,21.0645161 C17.3503226,21.0645161 19.8108387,22.6796129 19.8108387,24.5913548 C19.8108387,24.6089032 19.8107097,24.6254194 19.8103226,24.6410323 Z" id="Shape"/>
        </g>
    </g>
</svg>