<?xml version="1.0" encoding="UTF-8"?>
<svg width="60px" height="60px" viewBox="0 0 60 60" version="1.1" xmlns="http://www.w3.org/2000/svg" xmlns:xlink="http://www.w3.org/1999/xlink">
    <!-- Generator: Sketch 64 (93537) - https://sketch.com -->
    <title>icon-low</title>
    <desc>Created with Sketch.</desc>
    <g id="icon-low" stroke="none" stroke-width="1" fill="none" fill-rule="evenodd">
        <g id="heart" transform="translate(0.000000, 3.000000)" fill="#7ED321" fill-rule="nonzero">
            <path d="M30,54.4958496 C33.935198,52.3242188 60,37.1526228 60,16.6071429 C60,7.76053286 52.741176,0 44.4642857,0 C38.857073,0.00994001786 33.6882672,3.03484232 30.9333147,7.91904991 C30.7271904,8.23399138 30.376151,8.42337469 30,8.42337469 C29.623849,8.42337469 29.2728096,8.23399138 29.0666853,7.91904991 C26.3117328,3.03484232 21.142927,0.00994001786 15.5357143,0 C7.25882397,0 0,7.76053286 0,16.6071429 C0,37.1526228 26.064802,52.3242188 30,54.4958496 Z" id="Path"/>
        </g>
        <g id="beard-copy" transform="translate(16.000000, 15.000000)" fill="#000000" fill-rule="nonzero" opacity="0.5">
            <circle id="Oval" cx="3.80645161" cy="10.8064516" r="1.80645161"/>
            <circle id="Oval" cx="23.8064516" cy="10.8064516" r="1.80645161"/>
            <path d="M20.8237419,1.53406452 C20.4205161,1.93716129 20.4205161,2.59070968 20.8237419,2.99380645 C21.2268387,3.39690323 21.8803871,3.39690323 22.2834839,2.99380645 C23.251871,2.02541935 24.8276129,2.02541935 25.796,2.99380645 C25.9975484,3.19535484 26.2616774,3.29612903 26.5259355,3.29612903 C26.7901935,3.29612903 27.0543226,3.19535484 27.255871,2.99380645 C27.6590968,2.59070968 27.6590968,1.93716129 27.255871,1.53406452 C25.4825806,-0.239225806 22.5970323,-0.239225806 20.8237419,1.53406452 Z" id="Path"/>
            <path d="M0.838451613,1.53406452 C0.435354839,1.93716129 0.435225806,2.59070968 0.838451613,2.99380645 C1.24154839,3.39703226 1.89509677,3.39703226 2.29819355,2.99380645 C3.26658065,2.02541935 4.84245161,2.02541935 5.81070968,2.99380645 C6.01225806,3.19535484 6.2763871,3.29612903 6.54064516,3.29612903 C6.80490323,3.29612903 7.06903226,3.19535484 7.27058065,2.99380645 C7.67380645,2.59070968 7.67380645,1.93716129 7.27058065,1.53406452 C5.49729032,-0.239225806 2.61187097,-0.239354839 0.838451613,1.53406452 Z" id="Path"/>
            <path d="M18.9625092,22 L10.0112834,22 C9.32908989,22 8.70328344,22.4072258 8.33696086,23.0895484 C7.8403157,24.0150968 7.89760602,25.2436129 8.47618667,26.0770323 C8.86650925,26.6392258 9.46134796,27.1487742 10.2948963,27.6349677 C11.6268963,28.411871 13.0569609,28.8002581 14.4868963,28.8002581 C15.9169609,28.8002581 17.3468963,28.4117419 18.6790254,27.6349677 C19.5124447,27.1487742 20.1072834,26.6392258 20.497606,26.0770323 L20.497606,26.0770323 C21.0761867,25.2436129 21.133477,24.0150968 20.6367028,23.0894194 C20.2705092,22.4072258 19.6447028,22 18.9625092,22 Z M18.8017351,24.8996129 C18.6560576,25.1094194 18.3360576,25.4449032 17.6387673,25.8514839 C15.6062512,27.0370323 13.3675415,27.0370323 11.3350254,25.8514839 C10.6377351,25.4447742 10.3177351,25.1094194 10.1720576,24.8996129 C10.0537351,24.7291613 10.0201867,24.3190968 10.1560576,24.0659355 C10.1563157,24.0654194 10.1565738,24.0650323 10.1567028,24.0645161 L18.8169609,24.0645161 C18.8170899,24.0649032 18.817348,24.0652903 18.817606,24.0658065 C18.953606,24.3190968 18.9200576,24.7290323 18.8017351,24.8996129 Z" id="Shape"/>
        </g>
    </g>
</svg>