<?xml version="1.0" encoding="UTF-8"?>
<svg width="60px" height="60px" viewBox="0 0 60 60" version="1.1" xmlns="http://www.w3.org/2000/svg" xmlns:xlink="http://www.w3.org/1999/xlink">
    <!-- Generator: Sketch 64 (93537) - https://sketch.com -->
    <title>icon-high</title>
    <desc>Created with Sketch.</desc>
    <g id="icon-high" stroke="none" stroke-width="1" fill="none" fill-rule="evenodd">
        <g id="heart" transform="translate(0.000000, 3.000000)" fill="#C8281F" fill-rule="nonzero">
            <path d="M30,54.4958496 C33.935198,52.3242188 60,37.1526228 60,16.6071429 C60,7.76053286 52.741176,0 44.4642857,0 C38.857073,0.00994001786 33.6882672,3.03484232 30.9333147,7.91904991 C30.7271904,8.23399138 30.376151,8.42337469 30,8.42337469 C29.623849,8.42337469 29.2728096,8.23399138 29.0666853,7.91904991 C26.3117328,3.03484232 21.142927,0.00994001786 15.5357143,0 C7.25882397,0 0,7.76053286 0,16.6071429 C0,37.1526228 26.064802,52.3242188 30,54.4958496 Z" id="Path"/>
        </g>
        <g id="frightened-hipster-copy" opacity="0.910226004" transform="translate(18.000000, 32.000000)"/>
        <g id="Group" transform="translate(15.000000, 18.000000)" fill="#4A0008" fill-rule="nonzero">
            <path d="M8.58835357,0.411654466 C8.03949166,-0.137218155 7.14978722,-0.137218155 6.60057393,0.411654466 L4.5,2.5122694 L2.39942607,0.411654466 C1.85038847,-0.137218155 0.960684028,-0.137218155 0.41164643,0.411654466 C-0.137215477,0.960527086 -0.137215477,1.8504246 0.41164643,2.39929722 L2.51239605,4.49991215 L0.41164643,6.60070278 C-0.137215477,7.1495754 -0.137215477,8.03947291 0.41164643,8.58834553 C0.686253075,8.86295754 1.04571897,9 1.40553625,9 C1.76517784,9 2.12499512,8.86278184 2.39942607,8.58834553 L4.5,6.4877306 L6.60057393,8.58834553 C6.87518057,8.86278184 7.23464647,9 7.59446375,9 C7.95428103,9 8.31392262,8.86278184 8.58835357,8.58834553 C9.13721548,8.03947291 9.13721548,7.1495754 8.58835357,6.60070278 L6.48760395,4.49991215 L8.58835357,2.39929722 C9.13721548,1.85060029 9.13721548,0.960527086 8.58835357,0.411654466 Z" id="Path-Copy"/>
            <path d="M29.5883536,0.411654466 C29.039316,-0.137218155 28.1496115,-0.137218155 27.6005739,0.411654466 L25.5,2.5122694 L23.3994261,0.411654466 C22.8507399,-0.137218155 21.9608597,-0.137218155 21.4116464,0.411654466 C20.8627845,0.960527086 20.8627845,1.8504246 21.4116464,2.39929722 L23.5122204,4.49991215 L21.4116464,6.60070278 C20.8627845,7.1495754 20.8627845,8.03947291 21.4116464,8.58834553 C21.6862531,8.86278184 22.045719,9 22.4055363,9 C22.7653535,9 23.1249951,8.86278184 23.3994261,8.58834553 L25.5,6.4877306 L27.6005739,8.58834553 C27.8751806,8.86295754 28.2346465,9 28.5944637,9 C28.9541053,9 29.3139226,8.86278184 29.5883536,8.58834553 C30.1372155,8.03947291 30.1372155,7.1495754 29.5883536,6.60070278 L27.4877796,4.49991215 L29.5883536,2.39929722 C30.1372155,1.85060029 30.1372155,0.960527086 29.5883536,0.411654466 Z" id="Path-Copy-2"/>
        </g>
        <path d="M29.9147097,34 C27.2047742,34 25,36.6770323 25,39.9674839 C25,43.2579355 27.2047742,45.9349677 29.9147097,45.9349677 C32.6246452,45.9349677 34.8294194,43.2579355 34.8294194,39.9674839 C34.8294194,36.6770323 32.6246452,34 29.9147097,34 Z M29.9147097,36.0645161 C30.8830968,36.0645161 31.7397419,36.7298065 32.2549677,37.7436129 C31.552,37.5220645 30.755871,37.3990968 29.9144516,37.3990968 C29.0731613,37.3990968 28.2774194,37.5220645 27.5744516,37.7433548 C28.0899355,36.7298065 28.9464516,36.0645161 29.9147097,36.0645161 Z M29.9147097,43.8704516 C28.428,43.8704516 27.204129,42.3032258 27.0762581,40.312 C27.4776774,39.9162581 28.4883871,39.4636129 29.9144516,39.4636129 C31.3411613,39.4636129 32.3522581,39.9167742 32.7531613,40.3125161 C32.6251613,42.3034839 31.4012903,43.8704516 29.9147097,43.8704516 Z" id="Shape" fill="#4A0008" fill-rule="nonzero"/>
    </g>
</svg>